<svg class="svg-icon" style="width: 1em;height: 1em;vertical-align: middle;fill: currentColor;overflow: hidden;" viewBox="0 0 1024 1024" version="1.1" xmlns="http://www.w3.org/2000/svg"><path d="M725.333333 42.666667a256 256 0 0 1 256 256v426.666666a256 256 0 0 1-256 256H298.666667a256 256 0 0 1-256-256V298.666667a256 256 0 0 1 256-256h426.666666z m0 85.333333H298.666667a170.666667 170.666667 0 0 0-170.453334 162.133333L128 298.666667v426.666666a170.666667 170.666667 0 0 0 162.133333 170.453334L298.666667 896h426.666666a170.666667 170.666667 0 0 0 170.453334-162.133333L896 725.333333V298.666667a170.666667 170.666667 0 0 0-170.666667-170.666667z m-213.333333 170.666667a213.333333 213.333333 0 1 1 0 426.666666 213.333333 213.333333 0 0 1 0-426.666666z m0 85.333333a128 128 0 1 0 0 256 128 128 0 0 0 0-256z m234.666667-149.333333a42.666667 42.666667 0 1 1 0 85.333333 42.666667 42.666667 0 0 1 0-85.333333z" fill="#666666" /></svg>